<svg width="41" height="41" viewBox="0 0 41 41" fill="none" xmlns="http://www.w3.org/2000/svg">
<rect width="40.7585" height="40.7585" rx="20.3793" fill="#A78DF8" fill-opacity="0.2"/>
<path d="M28.5957 20.1729V13.5062C28.5957 13.1526 28.4552 12.8134 28.2052 12.5634C27.9551 12.3133 27.616 12.1729 27.2624 12.1729H13.929C13.5754 12.1729 13.2363 12.3133 12.9862 12.5634C12.7362 12.8134 12.5957 13.1526 12.5957 13.5062V26.8395C12.5957 27.1931 12.7362 27.5323 12.9862 27.7823C13.2363 28.0324 13.5754 28.1729 13.929 28.1729H20.5957" stroke="#A78DF8" stroke-width="2" stroke-linecap="round" stroke-linejoin="round"/>
<path d="M24.151 26.3951C25.6238 26.3951 26.8177 25.2012 26.8177 23.7284C26.8177 22.2557 25.6238 21.0618 24.151 21.0618C22.6783 21.0618 21.4844 22.2557 21.4844 23.7284C21.4844 25.2012 22.6783 26.3951 24.151 26.3951Z" stroke="#A78DF8" stroke-width="2"/>
<path d="M26.3736 25.5061L28.5958 27.2839M16.1514 16.6172H25.0403M16.1514 20.1727H19.7069" stroke="#A78DF8" stroke-width="2" stroke-linecap="round" stroke-linejoin="round"/>
</svg>
